<?xml version="1.0" encoding="UTF-8" standalone="no"?>
<!-- Created with Inkscape (http://www.inkscape.org/) -->

<svg
   width="64pt"
   height="64pt"
   viewBox="0 0 22.577778 22.577778"
   version="1.1"
   id="svg831"
   inkscape:version="1.1.1 (3bf5ae0d25, 2021-09-20)"
   sodipodi:docname="Ex.svg"
   inkscape:export-filename="C:\Users\User\Desktop\CARLOS PROJECT\4. APRIL 1\Done\15 - Spinach.png"
   inkscape:export-xdpi="576"
   inkscape:export-ydpi="576"
   xmlns:inkscape="http://www.inkscape.org/namespaces/inkscape"
   xmlns:sodipodi="http://sodipodi.sourceforge.net/DTD/sodipodi-0.dtd"
   xmlns="http://www.w3.org/2000/svg"
   xmlns:svg="http://www.w3.org/2000/svg"
   xmlns:rdf="http://www.w3.org/1999/02/22-rdf-syntax-ns#"
   xmlns:cc="http://creativecommons.org/ns#"
   xmlns:dc="http://purl.org/dc/elements/1.1/">
  <defs
     id="defs825">
    <pattern
       id="EMFhbasepattern"
       patternUnits="userSpaceOnUse"
       width="6"
       height="6"
       x="0"
       y="0" />
    <pattern
       id="EMFhbasepattern-9"
       patternUnits="userSpaceOnUse"
       width="6"
       height="6"
       x="0"
       y="0" />
    <pattern
       id="EMFhbasepattern-0"
       patternUnits="userSpaceOnUse"
       width="6"
       height="6"
       x="0"
       y="0" />
    <pattern
       id="EMFhbasepattern-7"
       patternUnits="userSpaceOnUse"
       width="6"
       height="6"
       x="0"
       y="0" />
    <pattern
       id="EMFhbasepattern-2"
       patternUnits="userSpaceOnUse"
       width="6"
       height="6"
       x="0"
       y="0" />
    <pattern
       id="EMFhbasepattern-98"
       patternUnits="userSpaceOnUse"
       width="6"
       height="6"
       x="0"
       y="0" />
    <pattern
       id="EMFhbasepattern-6"
       patternUnits="userSpaceOnUse"
       width="6"
       height="6"
       x="0"
       y="0" />
    <pattern
       id="EMFhbasepattern-01"
       patternUnits="userSpaceOnUse"
       width="6"
       height="6"
       x="0"
       y="0" />
    <pattern
       id="EMFhbasepattern-07"
       patternUnits="userSpaceOnUse"
       width="6"
       height="6"
       x="0"
       y="0" />
    <pattern
       id="EMFhbasepattern-8"
       patternUnits="userSpaceOnUse"
       width="6"
       height="6"
       x="0"
       y="0" />
    <pattern
       id="EMFhbasepattern-4"
       patternUnits="userSpaceOnUse"
       width="6"
       height="6"
       x="0"
       y="0" />
    <pattern
       id="EMFhbasepattern-40"
       patternUnits="userSpaceOnUse"
       width="6"
       height="6"
       x="0"
       y="0" />
    <pattern
       id="EMFhbasepattern-08"
       patternUnits="userSpaceOnUse"
       width="6"
       height="6"
       x="0"
       y="0" />
    <pattern
       id="EMFhbasepattern-04"
       patternUnits="userSpaceOnUse"
       width="6"
       height="6"
       x="0"
       y="0" />
    <pattern
       id="EMFhbasepattern-014"
       patternUnits="userSpaceOnUse"
       width="6"
       height="6"
       x="0"
       y="0" />
    <pattern
       id="EMFhbasepattern-27"
       patternUnits="userSpaceOnUse"
       width="6"
       height="6"
       x="0"
       y="0" />
    <pattern
       id="EMFhbasepattern-09"
       patternUnits="userSpaceOnUse"
       width="6"
       height="6"
       x="0"
       y="0" />
    <pattern
       id="EMFhbasepattern-5"
       patternUnits="userSpaceOnUse"
       width="6"
       height="6"
       x="0"
       y="0" />
    <pattern
       id="EMFhbasepattern-018"
       patternUnits="userSpaceOnUse"
       width="6"
       height="6"
       x="0"
       y="0" />
  </defs>
  <sodipodi:namedview
     id="base"
     pagecolor="#ffffff"
     bordercolor="#666666"
     borderopacity="1.0"
     inkscape:pageopacity="0.0"
     inkscape:pageshadow="2"
     inkscape:zoom="6.4882571"
     inkscape:cx="31.749667"
     inkscape:cy="42.615451"
     inkscape:document-units="pt"
     inkscape:current-layer="layer1"
     showgrid="false"
     units="pt"
     inkscape:window-width="1920"
     inkscape:window-height="1001"
     inkscape:window-x="-9"
     inkscape:window-y="-9"
     inkscape:window-maximized="1"
     inkscape:pagecheckerboard="true"
     inkscape:showpageshadow="false"
     inkscape:object-paths="true"
     inkscape:snap-intersection-paths="true"
     inkscape:snap-smooth-nodes="true"
     inkscape:snap-midpoints="true"
     showguides="true"
     inkscape:snap-bbox="true"
     inkscape:bbox-nodes="true"
     inkscape:snap-nodes="false"
     inkscape:snap-global="true"
     inkscape:lockguides="true">
    <inkscape:grid
       type="xygrid"
       id="grid1378" />
    <sodipodi:guide
       position="0.97013831,21.607643"
       orientation="78.000048,0"
       id="guide1380"
       inkscape:locked="true" />
    <sodipodi:guide
       position="0.97013831,0.97013129"
       orientation="0,78.000005"
       id="guide1382"
       inkscape:locked="true" />
    <sodipodi:guide
       position="21.607639,0.97013129"
       orientation="-78.000048,0"
       id="guide1384"
       inkscape:locked="true" />
    <sodipodi:guide
       position="21.607639,21.607643"
       orientation="0,-78.000005"
       id="guide1386"
       inkscape:locked="true" />
  </sodipodi:namedview>
  <metadata
     id="metadata828">
    <rdf:RDF>
      <cc:Work
         rdf:about="">
        <dc:format>image/svg+xml</dc:format>
        <dc:type
           rdf:resource="http://purl.org/dc/dcmitype/StillImage" />
      </cc:Work>
    </rdf:RDF>
  </metadata>
  <g
     inkscape:label="Icon"
     inkscape:groupmode="layer"
     id="layer1"
     transform="translate(0,-274.42223)">
    <g
       id="g28752"
       style="display:inline;stroke-width:0.775741"
       transform="matrix(1.2890905,0,0,1.2890905,79.016447,-161.27666)">
      <g
         id="g26752"
         style="stroke-width:0.775741">
        <path
           style="color:#000000;fill:#50b86b;stroke-width:0.775741;stroke-linecap:round;stroke-linejoin:round;-inkscape-stroke:none"
           d="m -48.91381,341.30272 c -0.05072,0.0299 -0.09,0.0759 -0.111623,0.13074 l -4.183724,10.72493 c -0.05818,0.15103 0.03164,0.31843 0.189653,0.35346 1.703769,0.38055 3.429913,-0.51525 4.730459,-1.46709 1.300547,-0.95183 2.197283,-1.9942 2.197283,-1.9942 0.135664,-0.16 0.0401,-0.4067 -0.167947,-0.43356 l -0.358635,-0.045 c 0.725676,-0.84898 1.184772,-1.71044 1.661396,-2.73006 0.08891,-0.20168 -0.09327,-0.41729 -0.306956,-0.36329 l -0.537435,0.13539 c 0.35517,-0.81722 0.507215,-1.5899 0.604096,-2.4815 0.03228,-0.28493 -0.238991,-0.33683 -0.396359,-0.24962 l -0.544668,0.31368 c 0.0472,-0.81259 -0.111191,-1.54502 -0.38137,-2.32544 -0.06793,-0.23795 -0.126764,-0.30332 -0.249666,-0.27841 0,0 -1.241601,0.1768 -2.144504,0.70997 z"
           id="path105695"
           sodipodi:nodetypes="scccscccccccccccs" />
        <path
           id="path111440"
           style="fill:#349951;fill-opacity:1;stroke-width:0.775741;stroke-linecap:round;stroke-linejoin:round"
           d="m -50.364886,344.86736 -2.844271,7.29103 a 0.26461046,0.26461046 0 0 0 0.189653,0.35346 c 0.337834,0.0755 0.676238,0.0991 1.012341,0.0837 1.040493,-1.11394 1.485112,-2.66975 1.700671,-3.99201 0.280445,-1.72025 0.165883,-3.21272 0.165883,-3.21272 a 0.63980022,0.63980022 0 0 0 0,-5.3e-4 0.63980022,0.63980022 0 0 0 0,-5.3e-4 0.63980022,0.63980022 0 0 0 0,-5.3e-4 0.63980022,0.63980022 0 0 0 0,-5.3e-4 c -0.01535,-0.1921 -0.09781,-0.37608 -0.224277,-0.52141 z" />
        <path
           style="color:#000000;fill:#349951;stroke-width:0.775741;stroke-linecap:round;stroke-linejoin:round;-inkscape-stroke:none"
           d="m -48.300781,344.66016 a 0.264584,0.264584 0 0 0 -0.271485,0.25781 0.264584,0.264584 0 0 0 0.25586,0.27148 c 0.335802,0.01 0.674486,0.0615 1.070312,0.14258 a 0.264584,0.264584 0 0 0 0.3125,-0.20703 0.264584,0.264584 0 0 0 -0.207031,-0.3125 c -0.411215,-0.0842 -0.781541,-0.14132 -1.160156,-0.15234 z"
           id="path9255" />
        <path
           id="path107401"
           style="fill:#349951;fill-opacity:1;stroke-width:0.775741;stroke-linecap:round;stroke-linejoin:round"
           d="m -52.894964,351.35327 c 0.162046,0.4935 0.816062,0.76942 1.277443,0.51779 2.716305,-1.48779 4.241141,-4.87201 4.244184,-4.87877 0.138604,-0.28828 0.106172,-0.6511 -0.08165,-0.91002 -0.06602,-0.091 -0.199853,-0.0677 -0.295074,-0.12712 0.122563,-0.33502 0.276656,-0.67039 0.36122,-0.98599 0.220853,-0.82423 0.33383,-1.54512 0.33383,-1.54512 7.05e-4,-10e-4 0.0014,-0.003 0.0021,-0.004 0.06613,-0.43556 -0.241887,-0.89518 -0.482627,-0.95386 -0.240739,-0.0587 -0.29078,-0.0213 -0.343713,-0.0244 0.05321,-0.52463 -0.01277,-1.09028 -0.07648,-1.5618 -0.312923,0.1044 -0.650187,0.2409 -0.95808,0.42272 z"
           sodipodi:nodetypes="cccscsccccccc" />
        <path
           id="path114496"
           style="color:#000000;fill:#26783f;fill-opacity:1;stroke-width:0.775741;stroke-linecap:round;stroke-linejoin:round;-inkscape-stroke:none"
           d="m -48.316432,345.1893 c 0.264282,0.008 0.530453,0.0416 0.824757,0.0951 0.06714,-0.17463 0.11008,-0.34346 0.152956,-0.51057 -0.334169,-0.0627 -0.645277,-0.10446 -0.962216,-0.11369 z"
           sodipodi:nodetypes="ccccc" />
        <path
           style="color:#000000;fill:#50b86b;stroke-width:0.775741;stroke-linecap:round;stroke-linejoin:round;-inkscape-stroke:none"
           d="m -50.784656,338.75749 c 0,0 -0.534714,0.20287 -1.057147,0.54536 -0.350258,0.22961 -0.732843,0.51797 -1.020609,0.87333 l -0.162783,-0.60772 c -0.02545,-0.095 -0.101474,-0.16802 -0.197402,-0.18965 -0.09625,-0.0214 -0.196435,0.0125 -0.259932,0.0879 0,0 -0.598065,0.70564 -1.030947,1.52342 -0.02936,0.0559 -0.03778,0.12037 -0.02376,0.1819 l 2.234488,9.97459 c 0.03887,0.17133 0.230841,0.25791 0.38499,0.17363 2.438958,-1.33589 3.978053,-4.59972 3.978053,-4.59972 0.0909,-0.18958 -0.06494,-0.40435 -0.27337,-0.37672 l -0.358117,0.0496 c 0.481044,-1.00791 0.701813,-1.9587 0.897621,-3.067 0.04025,-0.27896 -0.226149,-0.37637 -0.390676,-0.27184 l -0.484206,0.27079 c 0.131095,-0.88094 0.07824,-1.66584 -0.05891,-2.55178 -0.04103,-0.28046 -0.293114,-0.29678 -0.447519,-0.14056 l -0.443384,0.44338 c -0.07155,-0.45135 -0.25858,-0.8923 -0.447,-1.26607 -0.281199,-0.55782 -0.586013,-0.97049 -0.586013,-0.97049 -0.07408,-0.12559 -0.200815,-0.10165 -0.253373,-0.0823 z"
           id="path104664"
           sodipodi:nodetypes="cscccccccccccccccccscc" />
        <path
           id="path9201"
           style="color:#000000;fill:#349951;stroke-width:0.775741;stroke-linecap:round;stroke-linejoin:round;-inkscape-stroke:none"
           d="m -51.664027,341.44118 c -0.300069,0.54456 -0.572937,1.09954 -0.820105,1.66605 -0.0595,0.13427 0.0017,0.29131 0.136424,0.34985 0.01874,0.008 0.03834,0.0136 0.05839,0.017 -0.07438,0.0799 -0.09203,0.19733 -0.04444,0.29559 0.06438,0.13081 0.222453,0.18488 0.353467,0.12092 0.672592,-0.32763 1.19833,-0.41922 1.962672,-0.46509 0.145403,-0.009 0.256281,-0.13361 0.248046,-0.27905 -0.0089,-0.14541 -0.13361,-0.25629 -0.279053,-0.24805 -0.716171,0.0429 -1.300543,0.13648 -1.950268,0.41858 0.240435,-0.55083 0.50631,-1.09038 0.797886,-1.61954 0.07072,-0.12799 0.0242,-0.28908 -0.10387,-0.35967 -0.160368,-0.0654 -0.270569,-0.0186 -0.359149,0.10341 z"
           sodipodi:nodetypes="ccccccccccccc" />
        <path
           id="path107275"
           style="fill:#349951;fill-opacity:1;stroke-width:0.775741;stroke-linecap:round;stroke-linejoin:round"
           d="m -54.513471,340.99007 c 0.132292,0.0744 2.595718,10.33012 2.595718,10.33012 0.400968,-0.21962 0.777063,-0.49194 1.126546,-0.79271 0.235124,-0.64665 0.384712,-1.31043 0.484724,-1.92392 0.280445,-1.72025 0.165884,-3.21272 0.165884,-3.21272 v -5.3e-4 -5.3e-4 -5.3e-4 -5.3e-4 c -0.02577,-0.32231 -0.239927,-0.62258 -0.438293,-0.71132 -0.198366,-0.0887 -0.298998,-2.4e-4 -0.407702,-0.005 -0.06101,-0.34839 -0.09539,-0.71411 -0.179316,-1.02733 -0.221014,-0.82483 -0.482658,-1.50585 -0.482658,-1.50585 -6.98e-4,-6.7e-4 -0.0014,-0.001 -0.0021,-0.002 -0.292837,-0.52565 -0.783074,-0.95663 -1.169989,-0.36742 -0.287357,-0.61576 -0.710326,-1.22062 -1.138431,-1.67385 -0.209336,0.28441 -0.394655,0.58215 -0.554383,0.89412 z"
           sodipodi:nodetypes="cccscccccccsccccc" />
        <path
           id="path112422"
           style="color:#000000;fill:#26783f;fill-opacity:1;stroke-width:0.775741;stroke-linecap:round;stroke-linejoin:round;-inkscape-stroke:none"
           d="m -51.866087,341.81741 c -0.221718,0.42344 -0.427548,0.85322 -0.618048,1.28985 -0.0595,0.13427 0.0017,0.29131 0.136424,0.34985 0.01874,0.008 0.03834,0.0136 0.05839,0.017 -0.07438,0.0799 -0.09203,0.19733 -0.04444,0.29559 0.06438,0.13081 0.222453,0.18488 0.353467,0.12092 0.28262,-0.13767 0.53956,-0.23335 0.798918,-0.30179 -0.0484,-0.17776 -0.09776,-0.34789 -0.146244,-0.5054 -0.221432,0.0586 -0.442237,0.13414 -0.671277,0.23358 0.137851,-0.31581 0.28411,-0.62781 0.438733,-0.93638 -0.05368,-0.22025 -0.183402,-0.40635 -0.305962,-0.5632 z"
           sodipodi:nodetypes="cccccccccccc" />
        <path
           style="color:#000000;fill:#50b86b;stroke-width:0.775741;stroke-linecap:round;stroke-linejoin:round;-inkscape-stroke:none"
           d="m -57.283327,339.99624 c -0.452887,0.66733 -0.895907,1.42145 -1.03301,2.23604 l -0.443383,-0.44338 c -0.158715,-0.17078 -0.409208,-0.0586 -0.447519,0.14056 -0.105798,0.86669 -0.218245,1.70288 -0.05994,2.55178 l -0.482658,-0.27027 c -0.193324,-0.10851 -0.426384,0.0546 -0.390673,0.27337 0,0 0.109333,0.69078 0.320391,1.47846 0.144791,0.54036 0.320194,1.12422 0.577226,1.58647 l -0.356566,-0.0496 c -0.209707,-0.0298 -0.367703,0.18658 -0.275436,0.37724 0,0 0.641146,1.33228 1.722376,2.63653 1.081231,1.30425 2.6264,2.62639 4.474663,2.49442 0.101816,-0.0303 0.17617,-0.0709 0.261994,-0.1116 1.576631,-0.8712 2.211891,-2.76132 2.478403,-4.39612 0.266512,-1.63478 0.158131,-3.06079 0.158128,-3.06079 -0.01737,-0.2244 -0.278836,-0.31098 -0.425813,-0.18756 l -0.28422,0.22066 c -0.08817,-1.11335 -0.372678,-2.04715 -0.756542,-3.10523 -0.112241,-0.28012 -0.365684,-0.24925 -0.474908,-0.0393 l -0.282668,0.47491 c -0.328647,-0.82693 -0.76758,-1.47982 -1.326536,-2.17971 -0.207226,-0.21188 -0.397849,-0.0803 -0.458886,0.10123 l -0.162782,0.60823 c -0.55447,-0.62392 -1.197001,-1.02486 -1.9544,-1.39526 -0.176154,-0.0819 -0.290904,-0.062 -0.377242,0.0589 z"
           id="path103054"
           sodipodi:nodetypes="cccccccscccsccsccccccccccc" />
        <path
           id="path5328"
           style="color:#000000;fill:#349951;fill-opacity:1;stroke-width:0.775741;stroke-linecap:round;stroke-linejoin:round;-inkscape-stroke:none"
           d="m -56.644605,342.73054 c 0.03755,1.21362 0.142604,2.16606 0.332341,3.26169 -0.415007,-0.30291 -0.725506,-0.68831 -1.096057,-1.24954 -0.08005,-0.12266 -0.244509,-0.15695 -0.366903,-0.0765 -0.122258,0.0807 -0.155622,0.24547 -0.07442,0.36742 0.496907,0.7526 0.957221,1.28153 1.678451,1.67018 0.237038,1.09209 0.511942,2.00259 0.874867,3.00334 -0.696836,-0.3911 -1.422567,-1.00347 -1.975073,-2.21795 -0.06369,-0.13963 -0.224226,-0.18364 -0.34985,-0.13302 -0.133374,0.0607 -0.191995,0.21827 -0.130741,0.3514 0.743106,1.63344 1.84921,2.32404 2.732648,2.72955 0.5506,1.61979 1.31382,2.7344 2.267562,4.19453 0.08021,0.12248 0.24464,0.15654 0.366903,0.076 0.122972,-0.0801 0.157287,-0.24493 0.07648,-0.36742 l -1.174088,-1.79473 c -0.19068,-0.3749 -0.370972,-0.75113 -0.542602,-1.12809 0.178765,-1.37757 0.432916,-2.55772 1.554427,-3.71761 0.102435,-0.10501 0.09988,-0.27332 -0.0057,-0.37517 -0.120993,-0.10745 -0.283761,-0.0779 -0.375171,0.008 -0.974365,1.0077 -1.359133,2.07001 -1.567863,3.17293 -0.27555,-0.66966 -0.519446,-1.34263 -0.731221,-2.01952 0.0687,-0.48976 0.314066,-1.12907 0.662493,-1.69033 0.372811,-0.60054 0.866651,-1.11101 1.323949,-1.31052 0.133729,-0.0583 0.194992,-0.21392 0.136943,-0.34778 -0.07199,-0.14654 -0.227734,-0.18774 -0.347782,-0.13656 -0.620786,0.27083 -1.153115,0.85591 -1.562695,1.51567 -0.198348,0.3195 -0.36699,0.65659 -0.495062,0.99063 -0.191587,-0.7252 -0.343337,-1.45501 -0.456303,-2.18953 0.488767,-0.82623 0.927243,-1.20511 1.664499,-1.69188 0.12098,-0.0807 0.15421,-0.24382 0.07441,-0.36536 -0.08023,-0.1228 -0.245054,-0.1569 -0.367419,-0.076 -0.599771,0.396 -1.05624,0.7709 -1.478978,1.341 -0.0677,-0.59789 -0.108323,-1.19922 -0.120407,-1.80402 -0.0025,-0.14634 -0.123418,-0.26281 -0.269358,-0.25975 -0.145941,0.003 -0.261169,0.1236 -0.25828,0.26914 z"
           sodipodi:nodetypes="cccccccccccccccccccccssccsccccccccc" />
      </g>
    </g>
  </g>
</svg>
